<svg width="36" height="37" viewBox="0 0 36 37" fill="none" xmlns="http://www.w3.org/2000/svg">
<path d="M29.8571 1.36789H3.58286C1.60407 1.36789 0 2.97196 0 4.95075V31.225C0 33.2038 1.60407 34.8079 3.58286 34.8079H29.8571C31.8359 34.8079 33.44 33.2038 33.44 31.225V4.95075C33.44 2.97196 31.8359 1.36789 29.8571 1.36789ZM29.8571 31.225H3.58286V4.95075H29.8571V31.225ZM27.1801 13.1821L14.2976 25.9612C13.9464 26.3096 13.3793 26.3073 13.0309 25.9561L6.25477 19.1251C5.90641 18.7739 5.90865 18.2068 6.25992 17.8584L7.95573 16.1762C8.30693 15.8279 8.87406 15.8301 9.22242 16.1814L13.6855 20.6806L24.2364 10.2145C24.5876 9.86613 25.1547 9.86837 25.5031 10.2196L27.1852 11.9153C27.5336 12.2666 27.5313 12.8337 27.1801 13.1821Z" fill="#333941"/>
</svg>
