<svg width="57" height="58" viewBox="0 0 57 58" fill="none" xmlns="http://www.w3.org/2000/svg">
<rect y="0.5" width="57" height="57" rx="28.5" fill="#7B61FF"/>
<path d="M44.1778 41.7534C46.2724 39.2857 47.7292 36.3603 48.425 33.2247C49.1208 30.0891 49.0351 26.8356 48.1751 23.7393C47.3152 20.643 45.7062 17.7951 43.4845 15.4364C41.2627 13.0777 38.4934 11.2777 35.4109 10.1887C32.3284 9.09962 29.0233 8.75353 25.7754 9.17968C22.5274 9.60584 19.432 10.7917 16.751 12.637C14.0701 14.4823 11.8825 16.9326 10.3733 19.7808C8.86402 22.629 8.07758 25.7913 8.08045 29C8.08155 33.6646 9.76031 38.1798 12.8222 41.7534L12.793 41.7777C12.8951 41.8976 13.0118 42.0005 13.1168 42.119C13.248 42.2661 13.3895 42.4046 13.5252 42.5474C13.9336 42.9816 14.3536 43.3986 14.7941 43.7899C14.9283 43.9099 15.0668 44.0213 15.2025 44.1355C15.6692 44.5297 16.1491 44.9039 16.6464 45.2524C16.7106 45.2952 16.769 45.3509 16.8331 45.3952V45.378C20.2492 47.7319 24.3243 48.9951 28.5014 48.9951C32.6785 48.9951 36.7537 47.7319 40.1697 45.378V45.3952C40.2339 45.3509 40.2908 45.2952 40.3564 45.2524C40.8523 44.9025 41.3336 44.5297 41.8004 44.1355C41.936 44.0213 42.0746 43.9085 42.2087 43.7899C42.6492 43.3972 43.0693 42.9816 43.4777 42.5474C43.6133 42.4046 43.7533 42.2661 43.8861 42.119C43.9896 42.0005 44.1078 41.8976 44.2099 41.7762L44.1778 41.7534ZM28.5 17.5748C29.7981 17.5748 31.0671 17.9517 32.1464 18.6579C33.2257 19.3641 34.067 20.3678 34.5638 21.5421C35.0605 22.7164 35.1905 24.0086 34.9373 25.2553C34.684 26.5019 34.0589 27.647 33.141 28.5458C32.2231 29.4446 31.0536 30.0567 29.7804 30.3047C28.5072 30.5526 27.1876 30.4254 25.9883 29.939C24.7889 29.4525 23.7639 28.6288 23.0427 27.572C22.3215 26.5151 21.9365 25.2726 21.9365 24.0015C21.9365 22.297 22.628 20.6624 23.8589 19.4571C25.0898 18.2519 26.7592 17.5748 28.5 17.5748V17.5748ZM16.8419 41.7534C16.8672 39.8782 17.6455 38.0881 19.0083 36.7705C20.3712 35.4528 22.2091 34.7136 24.1244 34.7126H32.8756C34.7908 34.7136 36.6287 35.4528 37.9916 36.7705C39.3545 38.0881 40.1327 39.8782 40.158 41.7534C36.9592 44.5759 32.8059 46.1379 28.5 46.1379C24.194 46.1379 20.0407 44.5759 16.8419 41.7534V41.7534Z" fill="white"/>
</svg>
