<svg width="25" height="25" viewBox="0 0 25 25" fill="none" xmlns="http://www.w3.org/2000/svg">
<path d="M12.3951 0.692017C5.89903 0.692017 0.613892 5.97715 0.613892 12.4733C0.613892 18.9694 5.89903 24.2545 12.3951 24.2545C18.8913 24.2545 24.1764 18.9694 24.1764 12.4733C24.1764 5.97715 18.8913 0.692017 12.3951 0.692017ZM18.5265 8.52485L10.914 17.5873C10.8305 17.6868 10.7266 17.7672 10.6093 17.823C10.492 17.8788 10.3642 17.9087 10.2343 17.9108H10.219C10.092 17.9107 9.96639 17.884 9.85037 17.8323C9.73435 17.7805 9.6305 17.705 9.54555 17.6106L6.28305 13.9856C6.2002 13.8977 6.13574 13.7941 6.09348 13.681C6.05122 13.5678 6.032 13.4474 6.03695 13.3267C6.0419 13.206 6.07093 13.0876 6.12232 12.9783C6.17372 12.869 6.24644 12.771 6.33622 12.6902C6.426 12.6094 6.53102 12.5474 6.64512 12.5078C6.75922 12.4682 6.88008 12.4517 7.00061 12.4595C7.12114 12.4673 7.23891 12.499 7.34699 12.5529C7.45507 12.6069 7.55128 12.6818 7.62997 12.7735L10.1952 15.6236L17.1388 7.35918C17.2945 7.17911 17.5149 7.06756 17.7522 7.04865C17.9896 7.02974 18.2248 7.10498 18.4071 7.25812C18.5894 7.41125 18.7041 7.62998 18.7265 7.86701C18.7488 8.10405 18.677 8.34035 18.5265 8.52485Z" fill="#61D837"/>
<path d="M5.28564 5.73227H19.4021V18.9562H5.28564V5.73227Z" fill="#61D837"/>
<path fill-rule="evenodd" clip-rule="evenodd" d="M10.6505 14.9053L7.06589 11.3207L5.96106 12.4256L10.6505 17.115L18.8292 8.93635L17.7243 7.83151L10.6505 14.9053Z" fill="white"/>
</svg>
