<svg width="24" height="25" viewBox="0 0 24 25" fill="none" xmlns="http://www.w3.org/2000/svg">
<g clip-path="url(#clip0)">
<path d="M22 20.2058V12.3798C22.0001 11.8353 21.889 11.2966 21.6735 10.7965C21.458 10.2965 21.1428 9.84573 20.747 9.47181L13.374 2.50381C13.0027 2.15274 12.511 1.95712 12 1.95712C11.489 1.95712 10.9973 2.15274 10.626 2.50381L3.253 9.47181C2.85722 9.84573 2.54195 10.2965 2.3265 10.7965C2.11104 11.2966 1.99994 11.8353 2 12.3798V20.2058C2 20.7362 2.21071 21.2449 2.58579 21.62C2.96086 21.9951 3.46957 22.2058 4 22.2058H20C20.5304 22.2058 21.0391 21.9951 21.4142 21.62C21.7893 21.2449 22 20.7362 22 20.2058Z" stroke="#C0C0C0" stroke-width="2" stroke-linecap="round" stroke-linejoin="round"/>
</g>
<defs>
<clipPath id="clip0">
<rect width="24" height="24" fill="white" transform="translate(0 0.205811)"/>
</clipPath>
</defs>
</svg>
