<svg width="24" height="26" viewBox="0 0 24 26" fill="none" xmlns="http://www.w3.org/2000/svg">
<path d="M21.4286 1.48706H2.57143C1.15125 1.48706 0 2.61133 0 3.99822V22.4134C0 23.8003 1.15125 24.9246 2.57143 24.9246H21.4286C22.8488 24.9246 24 23.8003 24 22.4134V3.99822C24 2.61133 22.8488 1.48706 21.4286 1.48706ZM21.4286 22.4134H2.57143V3.99822H21.4286V22.4134ZM19.5073 9.7674L10.2614 18.7241C10.0094 18.9682 9.60236 18.9667 9.35234 18.7205L4.48907 13.9328C4.23905 13.6866 4.24066 13.2892 4.49277 13.0449L5.70986 11.866C5.96191 11.6218 6.36895 11.6234 6.61896 11.8696L9.82211 15.023L17.3945 7.68748C17.6466 7.44332 18.0536 7.44489 18.3036 7.69104L19.5109 8.87955C19.7609 9.12575 19.7593 9.52325 19.5073 9.7674Z" fill="#C0C0C0"/>
</svg>
