<svg width="25" height="26" viewBox="0 0 25 26" fill="none" xmlns="http://www.w3.org/2000/svg">
<path d="M20.7433 4.51585C18.557 2.3296 15.5918 1.10138 12.5 1.10138C9.40819 1.10138 6.443 2.3296 4.25676 4.51585C2.07051 6.7021 0.842285 9.66729 0.842285 12.7591C0.842285 15.8509 2.07051 18.8161 4.25676 21.0024C6.443 23.1886 9.40819 24.4168 12.5 24.4168C15.5918 24.4168 18.557 23.1886 20.7433 21.0024C22.9295 18.8161 24.1577 15.8509 24.1577 12.7591C24.1577 9.66729 22.9295 6.7021 20.7433 4.51585ZM12.5 22.8543C6.93361 22.8543 2.4048 18.3256 2.4048 12.7591C2.4048 7.19261 6.93351 2.6639 12.5 2.6639C18.0665 2.6639 22.5952 7.19261 22.5952 12.7591C22.5952 18.3256 18.0665 22.8543 12.5 22.8543Z" fill="#9A9C9E"/>
<path d="M10.7432 15.2034L7.15854 11.6188L6.05371 12.7236L10.7432 17.4131L18.9219 9.23441L17.817 8.12958L10.7432 15.2034Z" fill="#333941"/>
</svg>
