<svg width="134" height="134" viewBox="0 0 134 134" fill="none" xmlns="http://www.w3.org/2000/svg">
<path d="M87.2323 95.2384C90.0735 88.4023 87.5192 84.1667 85.6494 81.0763C83.8614 78.1116 82.5695 75.9759 84.1566 70.5594C87.9965 57.4986 80.0926 43.7301 79.7514 43.1501L73.2209 47.4381C73.2817 47.5533 79.5797 58.736 76.8243 68.1348C74.1652 77.1777 77.0609 81.9745 79.1756 85.4753C80.7794 88.1239 81.3761 89.1121 80.1973 91.9429C76.0915 101.802 79.0855 106.815 81.2693 110.473C83.1746 113.661 84.4351 115.772 81.7195 122.352L88.7587 125.625C93.1178 115.068 90.0233 109.888 87.7599 106.109C85.907 102.994 84.7826 101.116 87.2323 95.2384" fill="#A4ACB6"/>
<path d="M59.3704 85.0586C61.3993 81.4992 64.1756 76.625 61.2967 67.6595C58.2879 58.2942 64.2823 47.0591 64.3849 46.8686L64.3891 46.8602L61.5982 45.1433L57.7436 42.7586C57.4169 43.3511 49.8585 57.3373 54.023 70.2872C55.7482 75.6535 54.5087 77.8331 52.796 80.8376C51.0059 83.9824 48.552 88.2892 51.5691 95.0437C54.1612 100.845 53.0871 102.757 51.3032 105.919C49.1403 109.763 46.1798 115.029 50.7965 125.46L57.7519 121.992C54.8647 115.487 56.0748 113.343 57.9027 110.102C59.9923 106.383 62.8628 101.291 58.512 91.5513C57.2662 88.7582 57.8336 87.7512 59.3704 85.0586" fill="#A4ACB6"/>
<path d="M116.044 91.1828C117.21 83.8798 113.726 80.3539 111.182 77.7828C108.749 75.3206 106.991 73.5409 107.265 67.9066C107.407 64.99 106.997 62.1802 106.291 59.54C111.337 61.397 116.599 62.5995 121.95 63.1182C126.839 57.3101 129.812 49.647 129.812 41.2427C129.812 23.0899 115.941 8.375 98.8376 8.375C91.7272 8.375 85.1863 10.9315 79.9603 15.2048C76.038 12.9315 71.5837 11.7373 67.0502 11.7438C62.4314 11.7438 58.0073 12.954 54.0795 15.2362C48.8472 10.944 42.2938 8.375 35.1624 8.375C18.0628 8.375 4.1875 23.0899 4.1875 41.2427C4.1875 49.647 7.16063 57.3101 12.0516 63.1161C18.494 62.4929 24.801 60.8762 30.7488 58.3235C29.8297 61.3008 29.279 64.5398 29.4444 67.9045C29.7229 73.5367 27.9599 75.3185 25.527 77.7807C22.9831 80.3539 19.4991 83.8777 20.6653 91.1807C21.6703 97.462 20.1377 99.026 17.598 101.62C14.5097 104.773 10.2908 109.091 12.0453 120.361L19.6645 118.814C18.5653 111.783 20.2863 110.024 22.891 107.365C25.8725 104.315 29.9616 100.14 28.2803 89.6062C27.7987 86.5849 28.6069 85.76 30.7865 83.5574C33.6696 80.6408 37.61 76.6522 37.1515 67.245C36.8479 61.1291 40.1121 55.2185 42.6497 51.5858C51.6444 45.0408 58.6376 36.1674 62.5717 25.9039C61.2676 23.2835 59.6199 20.8487 57.6723 18.6637C60.5885 17.2187 63.7978 16.4637 67.0523 16.4569C70.3793 16.4569 73.5325 17.2483 76.3653 18.6239C74.4037 20.8197 72.7447 23.268 71.4325 25.9039C76.0157 37.8592 84.7529 47.9217 95.9775 54.6134C97.9728 58.1099 99.7881 62.6115 99.5641 67.2429C99.1014 76.6501 103.044 80.6387 105.925 83.5553C108.104 85.7579 108.915 86.5808 108.435 89.6041C106.75 100.138 110.843 104.313 113.82 107.363C116.425 110.022 118.146 111.779 117.047 118.812L124.666 120.359C126.425 109.089 122.2 104.771 119.118 101.618C116.572 99.0281 115.041 97.4641 116.044 91.1828V91.1828ZM11.547 54.7809C9.45113 50.5763 8.36501 45.9407 8.375 41.2427C8.375 25.4286 20.3931 12.5625 35.1624 12.5625C43.171 12.5625 50.6227 16.3627 55.6561 22.7653C30.4808 27.9306 17.2085 45.0596 11.547 54.7809ZM78.3439 22.7674C83.3773 16.3627 90.829 12.5625 98.8376 12.5625C113.607 12.5625 125.625 25.4286 125.625 41.2427C125.625 46.0123 124.524 50.652 122.453 54.7809C116.791 45.0617 103.519 27.9306 78.3439 22.7674Z" fill="#A4ACB6"/>
<path d="M44.7373 67.7454L50.6585 73.6707L44.7332 79.5919L38.8099 73.6665L44.7373 67.7454Z" fill="#A4ACB6"/>
<path d="M103.568 123.104L97.6466 117.183L103.566 111.262L109.489 117.185L103.568 123.104Z" fill="#A4ACB6"/>
<path d="M39.3015 100.192L33.3824 94.2669L39.3078 88.3458L45.2268 94.2711L39.3015 100.192Z" fill="#A4ACB6"/>
<path d="M74.2755 60.2497L68.3544 66.173L62.4332 60.2497L68.3544 54.3286L74.2755 60.2497Z" fill="#A4ACB6"/>
<path d="M33.3802 123.104L27.457 117.183L33.3782 111.262L39.2993 117.185L33.3802 123.104Z" fill="#A4ACB6"/>
<path d="M98.5319 89.4346L104.451 95.3599L98.5256 101.281L92.6066 95.3557L98.5319 89.4346Z" fill="#A4ACB6"/>
<path d="M68.3544 122.193L62.4312 116.272L68.3544 110.349L74.2755 116.272L68.3544 122.193Z" fill="#A4ACB6"/>
<path d="M92.6124 68.6122L98.5336 74.5333L92.6103 80.4545L86.6892 74.5312L92.6124 68.6122Z" fill="#A4ACB6"/>
<path d="M69.8347 96.1198L63.9136 90.1966L69.8347 84.2755L75.7558 90.1966L69.8347 96.1198Z" fill="#A4ACB6"/>
</svg>
