<svg width="24" height="25" viewBox="0 0 24 25" fill="none" xmlns="http://www.w3.org/2000/svg">
<g clip-path="url(#clip0)">
<path d="M3.44444 24.2058H20.5556C21.9037 24.2058 23 23.1294 23 21.8058V3.80581C23 2.48221 21.9037 1.40581 20.5556 1.40581H18.1111C18.1111 1.08755 17.9823 0.782326 17.7531 0.557282C17.5239 0.332239 17.213 0.205811 16.8889 0.205811H7.11111C6.78696 0.205811 6.47608 0.332239 6.24687 0.557282C6.01766 0.782326 5.88889 1.08755 5.88889 1.40581H3.44444C2.09633 1.40581 1 2.48221 1 3.80581V21.8058C1 23.1294 2.09633 24.2058 3.44444 24.2058ZM3.44444 3.80581H5.88889V6.20581H18.1111V3.80581H20.5556V21.8058H3.44444V3.80581Z" fill="#C0C0C0"/>
</g>
<defs>
<clipPath id="clip0">
<rect width="24" height="24" fill="white" transform="translate(0 0.205811)"/>
</clipPath>
</defs>
</svg>
