<svg width="1920" height="1080" viewBox="0 0 1920 1080" fill="none" xmlns="http://www.w3.org/2000/svg">
<mask id="mask0" mask-type="alpha" maskUnits="userSpaceOnUse" x="0" y="0" width="1920" height="1080">
<rect width="1920" height="1080" fill="black"/>
</mask>
<g mask="url(#mask0)">
<rect width="1920" height="1080" fill="url(#paint0_linear)"/>
<path fill-rule="evenodd" clip-rule="evenodd" d="M960.137 457.18L870.91 522.008L904.992 626.902H1015.28L1049.37 522.008L960.137 457.18ZM1055.24 520.098L960.137 451L865.032 520.098L901.359 631.902H1018.92L1055.24 520.098Z" fill="white" fill-opacity="0.15"/>
<path fill-rule="evenodd" clip-rule="evenodd" d="M960.138 407.18L823.357 506.557L875.603 667.353H1044.67L1096.92 506.557L960.138 407.18ZM1102.8 504.647L960.138 401L817.479 504.647L871.97 672.353H1048.31L1102.8 504.647Z" fill="white" fill-opacity="0.15"/>
<path fill-rule="evenodd" clip-rule="evenodd" d="M960.138 357.18L775.804 491.106L846.213 707.803H1074.06L1144.47 491.106L960.138 357.18ZM1150.35 489.197L960.138 351L769.926 489.197L842.581 712.803H1077.69L1150.35 489.197Z" fill="white" fill-opacity="0.15"/>
<path fill-rule="evenodd" clip-rule="evenodd" d="M960.138 307.18L728.251 475.656L816.824 748.254H1103.45L1192.02 475.656L960.138 307.18ZM1197.9 473.746L960.138 301L722.373 473.746L813.191 753.254H1107.08L1197.9 473.746Z" fill="white" fill-opacity="0.15"/>
<path fill-rule="evenodd" clip-rule="evenodd" d="M960.137 457.18L870.91 522.008L904.992 626.902H1015.28L1049.37 522.008L960.137 457.18ZM1055.24 520.098L960.137 451L865.032 520.098L901.359 631.902H1018.92L1055.24 520.098Z" fill="white" fill-opacity="0.15"/>
<path fill-rule="evenodd" clip-rule="evenodd" d="M960.138 407.18L823.357 506.557L875.603 667.353H1044.67L1096.92 506.557L960.138 407.18ZM1102.8 504.647L960.138 401L817.479 504.647L871.97 672.353H1048.31L1102.8 504.647Z" fill="white" fill-opacity="0.15"/>
<path fill-rule="evenodd" clip-rule="evenodd" d="M960.138 357.18L775.804 491.106L846.213 707.803H1074.06L1144.47 491.106L960.138 357.18ZM1150.35 489.197L960.138 351L769.926 489.197L842.581 712.803H1077.69L1150.35 489.197Z" fill="white" fill-opacity="0.15"/>
<path fill-rule="evenodd" clip-rule="evenodd" d="M960.138 257.18L680.698 460.205L787.435 788.705H1132.84L1239.58 460.205L960.138 257.18ZM1245.45 458.295L960.138 251L674.821 458.295L783.802 793.705H1136.47L1245.45 458.295Z" fill="white" fill-opacity="0.15"/>
<path fill-rule="evenodd" clip-rule="evenodd" d="M960.138 207.18L633.146 444.754L758.046 829.156H1162.23L1287.13 444.754L960.138 207.18ZM1293.01 442.844L960.138 201L627.268 442.844L754.413 834.156H1165.86L1293.01 442.844Z" fill="white" fill-opacity="0.15"/>
<path fill-rule="evenodd" clip-rule="evenodd" d="M960.138 157.18L585.593 429.303L728.656 869.607H1191.62L1334.68 429.303L960.138 157.18ZM1340.56 427.393L960.138 151L579.715 427.393L725.023 874.607H1195.25L1340.56 427.393Z" fill="white" fill-opacity="0.15"/>
<path fill-rule="evenodd" clip-rule="evenodd" d="M960.138 107.18L538.04 413.852L699.267 910.058H1221.01L1382.24 413.852L960.138 107.18ZM1388.11 411.942L960.138 101L532.162 411.942L695.634 915.058H1224.64L1388.11 411.942Z" fill="white" fill-opacity="0.15"/>
<path fill-rule="evenodd" clip-rule="evenodd" d="M960.137 57.1803L490.487 398.401L669.878 950.509H1250.4L1429.79 398.401L960.137 57.1803ZM1435.67 396.491L960.137 51L484.609 396.491L666.245 955.509H1254.03L1435.67 396.491Z" fill="white" fill-opacity="0.15"/>
<path fill-rule="evenodd" clip-rule="evenodd" d="M960.138 7.1803L442.934 382.95L640.488 990.959H1279.79L1477.34 382.95L960.138 7.1803ZM1483.22 381.041L960.138 1L437.057 381.041L636.856 995.959H1283.42L1483.22 381.041Z" fill="white" fill-opacity="0.15"/>
<path fill-rule="evenodd" clip-rule="evenodd" d="M960.138 -42.8197L395.382 367.5L611.099 1031.41H1309.18L1524.89 367.5L960.138 -42.8197ZM1530.77 365.59L960.138 -49L389.504 365.59L607.466 1036.41H1312.81L1530.77 365.59Z" fill="white" fill-opacity="0.15"/>
<path fill-rule="evenodd" clip-rule="evenodd" d="M960.138 -92.8197L347.829 352.049L581.71 1071.86H1338.57L1572.45 352.049L960.138 -92.8197ZM1578.32 350.139L960.138 -99L341.951 350.139L578.077 1076.86H1342.2L1578.32 350.139Z" fill="white" fill-opacity="0.15"/>
<path fill-rule="evenodd" clip-rule="evenodd" d="M960.138 -142.82L300.276 336.598L552.321 1112.31H1367.95L1620 336.598L960.138 -142.82ZM1625.88 334.688L960.138 -149L294.398 334.688L548.688 1117.31H1371.59L1625.88 334.688Z" fill="white" fill-opacity="0.15"/>
<path fill-rule="evenodd" clip-rule="evenodd" d="M960.138 -192.82L252.723 321.147L522.931 1152.76H1397.34L1667.55 321.147L960.138 -192.82ZM1673.43 319.237L960.138 -199L246.845 319.237L519.299 1157.76H1400.98L1673.43 319.237Z" fill="white" fill-opacity="0.15"/>
<path fill-rule="evenodd" clip-rule="evenodd" d="M960.138 -242.82L205.17 305.696L493.542 1193.21H1426.73L1715.1 305.696L960.138 -242.82ZM1720.98 303.786L960.138 -249L199.292 303.786L489.909 1198.21H1430.37L1720.98 303.786Z" fill="white" fill-opacity="0.15"/>
<path fill-rule="evenodd" clip-rule="evenodd" d="M960.138 -292.82L157.617 290.245L464.153 1233.66H1456.12L1762.66 290.245L960.138 -292.82ZM1768.54 288.336L960.138 -299L151.74 288.336L460.52 1238.66H1459.75L1768.54 288.336Z" fill="white" fill-opacity="0.15"/>
<path fill-rule="evenodd" clip-rule="evenodd" d="M960.138 -342.82L110.065 274.795L434.764 1274.12H1485.51L1810.21 274.795L960.138 -342.82ZM1816.09 272.885L960.138 -349L104.187 272.885L431.131 1279.12H1489.14L1816.09 272.885Z" fill="white" fill-opacity="0.15"/>
<path fill-rule="evenodd" clip-rule="evenodd" d="M960.138 -392.82L62.5118 259.344L405.374 1314.57H1514.9L1857.76 259.344L960.138 -392.82ZM1863.64 257.434L960.138 -399L56.6339 257.434L401.742 1319.57H1518.53L1863.64 257.434Z" fill="white" fill-opacity="0.15"/>
<path fill-rule="evenodd" clip-rule="evenodd" d="M960.138 -442.82L14.9589 243.893L375.985 1355.02H1544.29L1905.32 243.893L960.138 -442.82ZM1911.19 241.983L960.138 -449L9.08105 241.983L372.352 1360.02H1547.92L1911.19 241.983Z" fill="white" fill-opacity="0.15"/>
<path fill-rule="evenodd" clip-rule="evenodd" d="M960.138 -492.82L-32.5939 228.442L346.596 1395.47H1573.68L1952.87 228.442L960.138 -492.82ZM1958.75 226.532L960.138 -499L-38.4717 226.532L342.963 1400.47H1577.31L1958.75 226.532Z" fill="white" fill-opacity="0.15"/>
<path fill-rule="evenodd" clip-rule="evenodd" d="M960.138 -542.82L-80.1467 212.991L317.206 1435.92H1603.07L2000.42 212.991L960.138 -542.82ZM2006.3 211.081L960.138 -549L-86.0245 211.081L313.574 1440.92H1606.7L2006.3 211.081Z" fill="white" fill-opacity="0.15"/>
<path fill-rule="evenodd" clip-rule="evenodd" d="M960.138 -592.82L-127.7 197.54L287.817 1476.37H1632.46L2047.97 197.54L960.138 -592.82ZM2053.85 195.63L960.138 -599L-133.577 195.63L284.185 1481.37H1636.09L2053.85 195.63Z" fill="white" fill-opacity="0.15"/>
<path fill-rule="evenodd" clip-rule="evenodd" d="M960.138 -642.82L-175.252 182.089L258.428 1516.82H1661.85L2095.53 182.089L960.138 -642.82ZM2101.41 180.18L960.138 -649L-181.13 180.18L254.795 1521.82H1665.48L2101.41 180.18Z" fill="white" fill-opacity="0.15"/>
<path fill-rule="evenodd" clip-rule="evenodd" d="M960.138 -692.82L-222.805 166.639L229.039 1557.27H1691.24L2143.08 166.639L960.138 -692.82ZM2148.96 164.729L960.138 -699L-228.683 164.729L225.406 1562.27H1694.87L2148.96 164.729Z" fill="white" fill-opacity="0.15"/>
<path fill-rule="evenodd" clip-rule="evenodd" d="M960.138 -742.82L-270.358 151.188L199.649 1597.72H1720.63L2190.63 151.188L960.138 -742.82ZM2196.51 149.278L960.138 -749L-276.236 149.278L196.017 1602.72H1724.26L2196.51 149.278Z" fill="white" fill-opacity="0.15"/>
<path fill-rule="evenodd" clip-rule="evenodd" d="M960.138 -792.82L-317.911 135.737L170.26 1638.17H1750.01L2238.19 135.737L960.138 -792.82ZM2244.06 133.827L960.138 -799L-323.789 133.827L166.628 1643.17H1753.65L2244.06 133.827Z" fill="white" fill-opacity="0.15"/>
<path fill-rule="evenodd" clip-rule="evenodd" d="M960.138 -842.82L-365.464 120.286L140.871 1678.62H1779.4L2285.74 120.286L960.138 -842.82ZM2291.62 118.376L960.138 -849L-371.342 118.376L137.238 1683.62H1783.04L2291.62 118.376Z" fill="white" fill-opacity="0.15"/>
<path fill-rule="evenodd" clip-rule="evenodd" d="M960.138 -892.82L-413.017 104.835L111.482 1719.07H1808.79L2333.29 104.835L960.138 -892.82ZM2339.17 102.925L960.138 -899L-418.894 102.925L107.849 1724.07H1812.43L2339.17 102.925Z" fill="white" fill-opacity="0.15"/>
<path fill-rule="evenodd" clip-rule="evenodd" d="M960.138 -942.82L-460.569 89.3843L82.0925 1759.53H1838.18L2380.84 89.3843L960.138 -942.82ZM2386.72 87.4745L960.138 -949L-466.447 87.4745L78.4597 1764.53H1841.82L2386.72 87.4745Z" fill="white" fill-opacity="0.15"/>
<path fill-rule="evenodd" clip-rule="evenodd" d="M960.138 -992.82L-508.122 73.9335L52.7032 1799.98H1867.57L2428.4 73.9335L960.138 -992.82ZM2434.28 72.0237L960.138 -999L-514 72.0237L49.0704 1804.98H1871.2L2434.28 72.0237Z" fill="white" fill-opacity="0.15"/>
</g>
<defs>
<linearGradient id="paint0_linear" x1="2244" y1="1383" x2="-228" y2="-105" gradientUnits="userSpaceOnUse">
<stop stop-color="#11998E"/>
<stop offset="1" stop-color="#38EF7D"/>
</linearGradient>
</defs>
</svg>
