<svg width="57" height="57" viewBox="0 0 57 57" fill="none" xmlns="http://www.w3.org/2000/svg">
<path d="M40.975 8.78247L47.733 15.5373L40.975 8.78247ZM45.3208 2.83169L27.0473 21.1052C26.1031 22.0481 25.4592 23.2494 25.1966 24.5576L23.5087 33.0068L31.9579 31.3157C33.2661 31.054 34.4658 30.4127 35.4103 29.4682L53.6838 11.1947C54.2329 10.6456 54.6685 9.99366 54.9657 9.2762C55.2629 8.55874 55.4158 7.78977 55.4158 7.01319C55.4158 6.23661 55.2629 5.46764 54.9657 4.75018C54.6685 4.03271 54.2329 3.38081 53.6838 2.83169C53.1347 2.28257 52.4828 1.84698 51.7653 1.5498C51.0479 1.25261 50.2789 1.09966 49.5023 1.09966C48.7257 1.09966 47.9568 1.25261 47.2393 1.5498C46.5218 1.84698 45.8699 2.28257 45.3208 2.83169V2.83169Z" stroke="black" stroke-width="2" stroke-linecap="round" stroke-linejoin="round"/>
<path d="M49.0349 39.3883V48.9606C49.0349 50.6531 48.3625 52.2763 47.1658 53.473C45.969 54.6698 44.3458 55.3421 42.6533 55.3421H7.5549C5.86242 55.3421 4.23925 54.6698 3.04248 53.473C1.84571 52.2763 1.17337 50.6531 1.17337 48.9606V13.8622C1.17337 12.1697 1.84571 10.5465 3.04248 9.34974C4.23925 8.15297 5.86242 7.48064 7.5549 7.48064H17.1272" stroke="black" stroke-width="2" stroke-linecap="round" stroke-linejoin="round"/>
</svg>
