<svg width="30" height="37" viewBox="0 0 30 37" fill="none" xmlns="http://www.w3.org/2000/svg">
<path d="M26.6667 3.36063H19.7C19 1.46245 17.1667 0.0879059 15 0.0879059C12.8333 0.0879059 11 1.46245 10.3 3.36063H3.33333C1.5 3.36063 0 4.83336 0 6.63336V32.8152C0 34.6152 1.5 36.0879 3.33333 36.0879H26.6667C28.5 36.0879 30 34.6152 30 32.8152V6.63336C30 4.83336 28.5 3.36063 26.6667 3.36063ZM15 3.36063C15.9167 3.36063 16.6667 4.097 16.6667 4.997C16.6667 5.897 15.9167 6.63336 15 6.63336C14.0833 6.63336 13.3333 5.897 13.3333 4.997C13.3333 4.097 14.0833 3.36063 15 3.36063ZM26.6667 32.8152H3.33333V6.63336H6.66667V11.5425H23.3333V6.63336H26.6667V32.8152Z" fill="#333941"/>
</svg>
