<svg width="259" height="250" viewBox="0 0 259 250" fill="none" xmlns="http://www.w3.org/2000/svg">
<path d="M255.535 111.842H50.6369L173.274 5.38362C175.235 3.66768 174.045 0.480927 171.453 0.480927H140.461C139.096 0.480927 137.8 0.971194 136.784 1.84668L4.44648 116.675C3.23442 117.725 2.26235 119.024 1.59614 120.483C0.929932 121.943 0.585144 123.528 0.585144 125.132C0.585144 126.736 0.929932 128.321 1.59614 129.78C2.26235 131.24 3.23442 132.538 4.44648 133.589L137.555 249.118C138.08 249.573 138.71 249.818 139.376 249.818H171.418C174.01 249.818 175.2 246.596 173.239 244.915L50.6369 138.457H255.535C257.075 138.457 258.336 137.196 258.336 135.655V114.644C258.336 113.103 257.075 111.842 255.535 111.842Z" fill="black"/>
</svg>
