<svg width="1920" height="1080" viewBox="0 0 1920 1080" fill="none" xmlns="http://www.w3.org/2000/svg">
<mask id="mask0" mask-type="alpha" maskUnits="userSpaceOnUse" x="0" y="0" width="1920" height="1080">
<rect width="1920" height="1080" fill="black"/>
</mask>
<g mask="url(#mask0)">
<rect width="1920" height="1080" fill="url(#paint0_linear)"/>
<path fill-rule="evenodd" clip-rule="evenodd" d="M1899 187.01L1988.7 121.845L1954.44 16.4048L1843.56 16.4048L1809.3 121.845L1899 187.01ZM1779.84 131.415L1899 217.981L2018.16 131.415L1972.64 -8.65107L1825.36 -8.65108L1779.84 131.415Z" fill="url(#paint1_linear)" fill-opacity="0.25"/>
<path fill-rule="evenodd" clip-rule="evenodd" d="M1899 249.649L2048.28 141.201L1991.26 -34.2714L1806.74 -34.2714L1749.72 141.201L1899 249.649ZM1720.26 150.772L1899 280.62L2077.74 150.772L2009.47 -59.3273L1788.53 -59.3274L1720.26 150.772Z" fill="url(#paint2_linear)" fill-opacity="0.25"/>
<path fill-rule="evenodd" clip-rule="evenodd" d="M1899 312.289L2107.86 160.558L2028.08 -84.9479L1769.92 -84.948L1690.14 160.558L1899 312.289ZM1660.68 170.128L1899 343.26L2137.32 170.128L2046.29 -110.004L1751.71 -110.004L1660.68 170.128Z" fill="url(#paint3_linear)" fill-opacity="0.25"/>
<path fill-rule="evenodd" clip-rule="evenodd" d="M1899 374.928L2167.44 179.915L2064.9 -135.624L1733.1 -135.624L1630.56 179.915L1899 374.928ZM1601.1 189.485L1899 405.899L2196.89 189.485L2083.11 -160.68L1714.89 -160.68L1601.1 189.485Z" fill="url(#paint4_linear)" fill-opacity="0.25"/>
<path fill-rule="evenodd" clip-rule="evenodd" d="M1899 187.01L1988.7 121.845L1954.44 16.4048L1843.56 16.4048L1809.3 121.845L1899 187.01ZM1779.84 131.415L1899 217.981L2018.16 131.415L1972.64 -8.65107L1825.36 -8.65108L1779.84 131.415Z" fill="url(#paint5_linear)" fill-opacity="0.25"/>
<path fill-rule="evenodd" clip-rule="evenodd" d="M1899 249.649L2048.28 141.201L1991.26 -34.2714L1806.74 -34.2714L1749.72 141.201L1899 249.649ZM1720.26 150.772L1899 280.62L2077.74 150.772L2009.47 -59.3273L1788.53 -59.3274L1720.26 150.772Z" fill="url(#paint6_linear)" fill-opacity="0.25"/>
<path fill-rule="evenodd" clip-rule="evenodd" d="M1899 312.289L2107.86 160.558L2028.08 -84.9479L1769.92 -84.948L1690.14 160.558L1899 312.289ZM1660.68 170.128L1899 343.26L2137.32 170.128L2046.29 -110.004L1751.71 -110.004L1660.68 170.128Z" fill="url(#paint7_linear)" fill-opacity="0.25"/>
<path fill-rule="evenodd" clip-rule="evenodd" d="M1899 437.568L2227.02 199.271L2101.73 -186.3L1696.27 -186.301L1570.98 199.271L1899 437.568ZM1541.53 208.842L1899 468.538L2256.47 208.842L2119.93 -211.356L1678.07 -211.356L1541.53 208.842Z" fill="url(#paint8_linear)" fill-opacity="0.25"/>
<path fill-rule="evenodd" clip-rule="evenodd" d="M1899 500.207L2286.6 218.628L2138.55 -236.977L1659.45 -236.977L1511.4 218.628L1899 500.207ZM1481.95 228.198L1899 531.178L2316.05 228.198L2156.75 -262.033L1641.25 -262.033L1481.95 228.198Z" fill="url(#paint9_linear)" fill-opacity="0.25"/>
<path fill-rule="evenodd" clip-rule="evenodd" d="M1899 562.847L2346.17 237.985L2175.37 -287.653L1622.63 -287.654L1451.83 237.985L1899 562.847ZM1422.37 247.555L1899 593.817L2375.63 247.555L2193.57 -312.709L1604.43 -312.709L1422.37 247.555Z" fill="url(#paint10_linear)" fill-opacity="0.25"/>
<path fill-rule="evenodd" clip-rule="evenodd" d="M1899 625.486L2405.75 257.341L2212.19 -338.33L1585.81 -338.33L1392.25 257.341L1899 625.486ZM1362.79 266.912L1899 656.457L2435.21 266.912L2230.4 -363.385L1567.6 -363.385L1362.79 266.912Z" fill="url(#paint11_linear)" fill-opacity="0.25"/>
<path fill-rule="evenodd" clip-rule="evenodd" d="M1899 688.125L2465.33 276.698L2249.01 -389.006L1548.99 -389.006L1332.67 276.698L1899 688.125ZM1303.21 286.268L1899 719.096L2494.79 286.268L2267.22 -414.062L1530.78 -414.062L1303.21 286.268Z" fill="url(#paint12_linear)" fill-opacity="0.25"/>
<path fill-rule="evenodd" clip-rule="evenodd" d="M1899 750.765L2524.91 296.055L2285.83 -439.683L1512.17 -439.683L1273.09 296.054L1899 750.765ZM1243.63 305.625L1899 781.735L2554.37 305.625L2304.04 -464.738L1493.96 -464.738L1243.63 305.625Z" fill="url(#paint13_linear)" fill-opacity="0.25"/>
<path fill-rule="evenodd" clip-rule="evenodd" d="M1899 813.404L2584.49 315.411L2322.66 -490.359L1475.34 -490.359L1213.51 315.411L1899 813.404ZM1184.05 324.981L1899 844.375L2613.95 324.982L2340.86 -515.414L1457.14 -515.415L1184.05 324.981Z" fill="url(#paint14_linear)" fill-opacity="0.25"/>
<path fill-rule="evenodd" clip-rule="evenodd" d="M1899 876.044L2644.07 334.768L2359.48 -541.035L1438.52 -541.035L1153.93 334.768L1899 876.044ZM1124.47 344.338L1899 907.014L2673.53 344.338L2377.68 -566.091L1420.32 -566.091L1124.47 344.338Z" fill="url(#paint15_linear)" fill-opacity="0.25"/>
<path fill-rule="evenodd" clip-rule="evenodd" d="M1899 938.683L2703.65 354.124L2396.3 -591.712L1401.7 -591.712L1094.35 354.124L1899 938.683ZM1064.89 363.695L1899 969.654L2733.11 363.695L2414.51 -616.767L1383.49 -616.767L1064.89 363.695Z" fill="url(#paint16_linear)" fill-opacity="0.25"/>
<path fill-rule="evenodd" clip-rule="evenodd" d="M1899 1001.32L2763.23 373.481L2433.12 -642.388L1364.88 -642.388L1034.77 373.481L1899 1001.32ZM1005.32 383.051L1899 1032.29L2792.68 383.051L2451.33 -667.444L1346.67 -667.444L1005.32 383.051Z" fill="url(#paint17_linear)" fill-opacity="0.25"/>
<path fill-rule="evenodd" clip-rule="evenodd" d="M1899 1063.96L2822.81 392.838L2469.94 -693.064L1328.06 -693.064L975.194 392.838L1899 1063.96ZM945.737 402.408L1899 1094.93L2852.26 402.408L2488.15 -718.12L1309.85 -718.12L945.737 402.408Z" fill="url(#paint18_linear)" fill-opacity="0.25"/>
<path fill-rule="evenodd" clip-rule="evenodd" d="M1899 1126.6L2882.38 412.194L2506.77 -743.741L1291.23 -743.741L915.615 412.194L1899 1126.6ZM886.158 421.765L1899 1157.57L2911.84 421.765L2524.97 -768.796L1273.03 -768.796L886.158 421.765Z" fill="url(#paint19_linear)" fill-opacity="0.25"/>
<path fill-rule="evenodd" clip-rule="evenodd" d="M1899 1189.24L2941.96 431.551L2543.59 -794.417L1254.41 -794.417L856.036 431.551L1899 1189.24ZM826.579 441.121L1899 1220.21L2971.42 441.121L2561.79 -819.473L1236.21 -819.473L826.579 441.121Z" fill="url(#paint20_linear)" fill-opacity="0.25"/>
<path fill-rule="evenodd" clip-rule="evenodd" d="M1899 1251.88L3001.54 450.908L2580.41 -845.093L1217.59 -845.093L796.457 450.907L1899 1251.88ZM767 460.478L1899 1282.85L3031 460.478L2598.61 -870.149L1199.39 -870.149L767 460.478Z" fill="url(#paint21_linear)" fill-opacity="0.25"/>
<path fill-rule="evenodd" clip-rule="evenodd" d="M1899 1314.52L3061.12 470.264L2617.23 -895.77L1180.77 -895.77L736.878 470.264L1899 1314.52ZM707.421 479.835L1899 1345.49L3090.58 479.835L2635.44 -920.825L1162.56 -920.825L707.421 479.835Z" fill="url(#paint22_linear)" fill-opacity="0.25"/>
<path fill-rule="evenodd" clip-rule="evenodd" d="M1899 1377.16L3120.7 489.621L2654.05 -946.446L1143.95 -946.446L677.299 489.621L1899 1377.16ZM647.842 499.191L1899 1408.13L3150.16 499.191L2672.26 -971.502L1125.74 -971.502L647.842 499.191Z" fill="url(#paint23_linear)" fill-opacity="0.25"/>
<path fill-rule="evenodd" clip-rule="evenodd" d="M1899 1439.8L3180.28 508.978L2690.87 -997.122L1107.13 -997.122L617.72 508.978L1899 1439.8ZM588.263 518.548L1899 1470.77L3209.74 518.548L2709.08 -1022.18L1088.92 -1022.18L588.263 518.548Z" fill="url(#paint24_linear)" fill-opacity="0.25"/>
<path fill-rule="evenodd" clip-rule="evenodd" d="M1899 1502.44L3239.86 528.334L2727.7 -1047.8L1070.3 -1047.8L558.141 528.334L1899 1502.44ZM528.684 537.904L1899 1533.41L3269.32 537.905L2745.9 -1072.85L1052.1 -1072.85L528.684 537.904Z" fill="url(#paint25_linear)" fill-opacity="0.25"/>
<path fill-rule="evenodd" clip-rule="evenodd" d="M1899 1565.08L3299.44 547.691L2764.52 -1098.47L1033.48 -1098.47L498.562 547.691L1899 1565.08ZM469.105 557.261L1899 1596.05L3328.89 557.262L2782.72 -1123.53L1015.28 -1123.53L469.105 557.261Z" fill="url(#paint26_linear)" fill-opacity="0.25"/>
<path fill-rule="evenodd" clip-rule="evenodd" d="M1899 1627.72L3359.02 567.048L2801.34 -1149.15L996.66 -1149.15L438.984 567.048L1899 1627.72ZM409.526 576.618L1899 1658.69L3388.47 576.618L2819.55 -1174.21L978.455 -1174.21L409.526 576.618Z" fill="url(#paint27_linear)" fill-opacity="0.25"/>
<path fill-rule="evenodd" clip-rule="evenodd" d="M1899 1690.36L3418.6 586.404L2838.16 -1199.83L959.838 -1199.83L379.405 586.404L1899 1690.36ZM349.947 595.975L1899 1721.33L3448.05 595.975L2856.37 -1224.88L941.633 -1224.88L349.947 595.975Z" fill="url(#paint28_linear)" fill-opacity="0.25"/>
<path fill-rule="evenodd" clip-rule="evenodd" d="M1899 1753L3478.17 605.761L2874.98 -1250.5L923.017 -1250.5L319.826 605.761L1899 1753ZM290.368 615.331L1899 1783.97L3507.63 615.331L2893.19 -1275.56L904.811 -1275.56L290.368 615.331Z" fill="url(#paint29_linear)" fill-opacity="0.25"/>
<path fill-rule="evenodd" clip-rule="evenodd" d="M1899 1815.63L3537.75 625.117L2911.81 -1301.18L886.194 -1301.18L260.246 625.117L1899 1815.63ZM230.789 634.688L1899 1846.61L3567.21 634.688L2930.01 -1326.24L867.989 -1326.24L230.789 634.688Z" fill="url(#paint30_linear)" fill-opacity="0.25"/>
<path fill-rule="evenodd" clip-rule="evenodd" d="M1899 1878.27L3597.33 644.474L2948.63 -1351.86L849.373 -1351.86L200.667 644.474L1899 1878.27ZM171.21 654.044L1899 1909.25L3626.79 654.045L2966.83 -1376.91L831.167 -1376.91L171.21 654.044Z" fill="url(#paint31_linear)" fill-opacity="0.25"/>
<path fill-rule="evenodd" clip-rule="evenodd" d="M1899 1940.91L3656.91 663.831L2985.45 -1402.53L812.551 -1402.53L141.089 663.831L1899 1940.91ZM111.631 673.401L1899 1971.88L3686.37 673.401L3003.65 -1427.59L794.346 -1427.59L111.631 673.401Z" fill="url(#paint32_linear)" fill-opacity="0.25"/>
<path fill-rule="evenodd" clip-rule="evenodd" d="M1899 2003.55L3716.49 683.188L3022.27 -1453.21L775.729 -1453.21L81.5099 683.187L1899 2003.55ZM52.0519 692.758L1899 2034.52L3745.95 692.758L3040.48 -1478.27L757.524 -1478.27L52.0519 692.758Z" fill="url(#paint33_linear)" fill-opacity="0.25"/>
<path fill-rule="evenodd" clip-rule="evenodd" d="M1899 2066.19L3776.07 702.544L3059.09 -1503.89L738.907 -1503.89L21.9308 702.544L1899 2066.19ZM-7.5267 712.114L1899 2097.16L3805.53 712.115L3077.3 -1528.94L720.702 -1528.94L-7.5267 712.114Z" fill="url(#paint34_linear)" fill-opacity="0.25"/>
<path fill-rule="evenodd" clip-rule="evenodd" d="M1899 2128.83L3835.65 721.901L3095.91 -1554.56L702.086 -1554.56L-37.6483 721.901L1899 2128.83ZM-67.1058 731.471L1899 2159.8L3865.11 731.471L3114.12 -1579.62L683.88 -1579.62L-67.1058 731.471Z" fill="url(#paint35_linear)" fill-opacity="0.25"/>
<path fill-rule="evenodd" clip-rule="evenodd" d="M1899 2191.47L3895.23 741.257L3132.74 -1605.24L665.264 -1605.24L-97.2274 741.257L1899 2191.47ZM-126.684 750.828L1899 2222.44L3924.68 750.828L3150.94 -1630.29L647.058 -1630.29L-126.684 750.828Z" fill="url(#paint36_linear)" fill-opacity="0.25"/>
<path fill-rule="evenodd" clip-rule="evenodd" d="M1899 2254.11L3954.81 760.614L3169.56 -1655.91L628.442 -1655.91L-156.806 760.614L1899 2254.11ZM-186.264 770.184L1899 2285.08L3984.26 770.185L3187.76 -1680.97L610.236 -1680.97L-186.264 770.184Z" fill="url(#paint37_linear)" fill-opacity="0.25"/>
<path fill-rule="evenodd" clip-rule="evenodd" d="M1899 2316.75L4014.38 779.971L3206.38 -1706.59L591.62 -1706.59L-216.385 779.971L1899 2316.75ZM-245.843 789.541L1899 2347.72L4043.84 789.541L3224.59 -1731.65L573.415 -1731.65L-245.843 789.541Z" fill="url(#paint38_linear)" fill-opacity="0.25"/>
<path fill-rule="evenodd" clip-rule="evenodd" d="M1899 2379.39L4073.96 799.327L3243.2 -1757.27L554.798 -1757.27L-275.964 799.327L1899 2379.39ZM-305.422 808.897L1899 2410.36L4103.42 808.898L3261.41 -1782.32L536.592 -1782.32L-305.422 808.897Z" fill="url(#paint39_linear)" fill-opacity="0.25"/>
<path fill-rule="evenodd" clip-rule="evenodd" d="M1899 2442.03L4133.54 818.684L3280.02 -1807.94L517.977 -1807.94L-335.543 818.684L1899 2442.03ZM-365 828.254L1899 2473L4163 828.255L3298.23 -1833L499.771 -1833L-365 828.254Z" fill="url(#paint40_linear)" fill-opacity="0.25"/>
</g>
<defs>
<linearGradient id="paint0_linear" x1="960" y1="0" x2="960" y2="1080" gradientUnits="userSpaceOnUse">
<stop stop-color="#B468F7"/>
<stop offset="1" stop-color="#8E2DE2"/>
</linearGradient>
<linearGradient id="paint1_linear" x1="2237.27" y1="98.7995" x2="-364.969" y2="820.526" gradientUnits="userSpaceOnUse">
<stop offset="0.0828132" stop-color="white" stop-opacity="0"/>
<stop offset="1" stop-color="white"/>
</linearGradient>
<linearGradient id="paint2_linear" x1="2237.27" y1="98.7995" x2="-364.969" y2="820.526" gradientUnits="userSpaceOnUse">
<stop offset="0.0828132" stop-color="white" stop-opacity="0"/>
<stop offset="1" stop-color="white"/>
</linearGradient>
<linearGradient id="paint3_linear" x1="2237.27" y1="98.7995" x2="-364.969" y2="820.526" gradientUnits="userSpaceOnUse">
<stop offset="0.0828132" stop-color="white" stop-opacity="0"/>
<stop offset="1" stop-color="white"/>
</linearGradient>
<linearGradient id="paint4_linear" x1="2237.27" y1="98.7995" x2="-364.969" y2="820.526" gradientUnits="userSpaceOnUse">
<stop offset="0.0828132" stop-color="white" stop-opacity="0"/>
<stop offset="1" stop-color="white"/>
</linearGradient>
<linearGradient id="paint5_linear" x1="2237.27" y1="98.7995" x2="-364.969" y2="820.526" gradientUnits="userSpaceOnUse">
<stop offset="0.0828132" stop-color="white" stop-opacity="0"/>
<stop offset="1" stop-color="white"/>
</linearGradient>
<linearGradient id="paint6_linear" x1="2237.27" y1="98.7995" x2="-364.969" y2="820.526" gradientUnits="userSpaceOnUse">
<stop offset="0.0828132" stop-color="white" stop-opacity="0"/>
<stop offset="1" stop-color="white"/>
</linearGradient>
<linearGradient id="paint7_linear" x1="2237.27" y1="98.7995" x2="-364.969" y2="820.526" gradientUnits="userSpaceOnUse">
<stop offset="0.0828132" stop-color="white" stop-opacity="0"/>
<stop offset="1" stop-color="white"/>
</linearGradient>
<linearGradient id="paint8_linear" x1="2237.27" y1="98.7995" x2="-364.969" y2="820.526" gradientUnits="userSpaceOnUse">
<stop offset="0.0828132" stop-color="white" stop-opacity="0"/>
<stop offset="1" stop-color="white"/>
</linearGradient>
<linearGradient id="paint9_linear" x1="2237.27" y1="98.7995" x2="-364.969" y2="820.526" gradientUnits="userSpaceOnUse">
<stop offset="0.0828132" stop-color="white" stop-opacity="0"/>
<stop offset="1" stop-color="white"/>
</linearGradient>
<linearGradient id="paint10_linear" x1="2237.27" y1="98.7995" x2="-364.969" y2="820.526" gradientUnits="userSpaceOnUse">
<stop offset="0.0828132" stop-color="white" stop-opacity="0"/>
<stop offset="1" stop-color="white"/>
</linearGradient>
<linearGradient id="paint11_linear" x1="2237.27" y1="98.7995" x2="-364.969" y2="820.526" gradientUnits="userSpaceOnUse">
<stop offset="0.0828132" stop-color="white" stop-opacity="0"/>
<stop offset="1" stop-color="white"/>
</linearGradient>
<linearGradient id="paint12_linear" x1="2237.27" y1="98.7995" x2="-364.969" y2="820.526" gradientUnits="userSpaceOnUse">
<stop offset="0.0828132" stop-color="white" stop-opacity="0"/>
<stop offset="1" stop-color="white"/>
</linearGradient>
<linearGradient id="paint13_linear" x1="2237.27" y1="98.7995" x2="-364.969" y2="820.526" gradientUnits="userSpaceOnUse">
<stop offset="0.0828132" stop-color="white" stop-opacity="0"/>
<stop offset="1" stop-color="white"/>
</linearGradient>
<linearGradient id="paint14_linear" x1="2237.27" y1="98.7995" x2="-364.969" y2="820.526" gradientUnits="userSpaceOnUse">
<stop offset="0.0828132" stop-color="white" stop-opacity="0"/>
<stop offset="1" stop-color="white"/>
</linearGradient>
<linearGradient id="paint15_linear" x1="2237.27" y1="98.7995" x2="-364.969" y2="820.526" gradientUnits="userSpaceOnUse">
<stop offset="0.0828132" stop-color="white" stop-opacity="0"/>
<stop offset="1" stop-color="white"/>
</linearGradient>
<linearGradient id="paint16_linear" x1="2237.27" y1="98.7995" x2="-364.969" y2="820.526" gradientUnits="userSpaceOnUse">
<stop offset="0.0828132" stop-color="white" stop-opacity="0"/>
<stop offset="1" stop-color="white"/>
</linearGradient>
<linearGradient id="paint17_linear" x1="2237.27" y1="98.7995" x2="-364.969" y2="820.526" gradientUnits="userSpaceOnUse">
<stop offset="0.0828132" stop-color="white" stop-opacity="0"/>
<stop offset="1" stop-color="white"/>
</linearGradient>
<linearGradient id="paint18_linear" x1="2237.27" y1="98.7995" x2="-364.969" y2="820.526" gradientUnits="userSpaceOnUse">
<stop offset="0.0828132" stop-color="white" stop-opacity="0"/>
<stop offset="1" stop-color="white"/>
</linearGradient>
<linearGradient id="paint19_linear" x1="2237.27" y1="98.7995" x2="-364.969" y2="820.526" gradientUnits="userSpaceOnUse">
<stop offset="0.0828132" stop-color="white" stop-opacity="0"/>
<stop offset="1" stop-color="white"/>
</linearGradient>
<linearGradient id="paint20_linear" x1="2237.27" y1="98.7995" x2="-364.969" y2="820.526" gradientUnits="userSpaceOnUse">
<stop offset="0.0828132" stop-color="white" stop-opacity="0"/>
<stop offset="1" stop-color="white"/>
</linearGradient>
<linearGradient id="paint21_linear" x1="2237.27" y1="98.7995" x2="-364.969" y2="820.526" gradientUnits="userSpaceOnUse">
<stop offset="0.0828132" stop-color="white" stop-opacity="0"/>
<stop offset="1" stop-color="white"/>
</linearGradient>
<linearGradient id="paint22_linear" x1="2237.27" y1="98.7995" x2="-364.969" y2="820.526" gradientUnits="userSpaceOnUse">
<stop offset="0.0828132" stop-color="white" stop-opacity="0"/>
<stop offset="1" stop-color="white"/>
</linearGradient>
<linearGradient id="paint23_linear" x1="2237.27" y1="98.7995" x2="-364.969" y2="820.526" gradientUnits="userSpaceOnUse">
<stop offset="0.0828132" stop-color="white" stop-opacity="0"/>
<stop offset="1" stop-color="white"/>
</linearGradient>
<linearGradient id="paint24_linear" x1="2237.27" y1="98.7995" x2="-364.969" y2="820.526" gradientUnits="userSpaceOnUse">
<stop offset="0.0828132" stop-color="white" stop-opacity="0"/>
<stop offset="1" stop-color="white"/>
</linearGradient>
<linearGradient id="paint25_linear" x1="2237.27" y1="98.7995" x2="-364.969" y2="820.526" gradientUnits="userSpaceOnUse">
<stop offset="0.0828132" stop-color="white" stop-opacity="0"/>
<stop offset="1" stop-color="white"/>
</linearGradient>
<linearGradient id="paint26_linear" x1="2237.27" y1="98.7995" x2="-364.969" y2="820.526" gradientUnits="userSpaceOnUse">
<stop offset="0.0828132" stop-color="white" stop-opacity="0"/>
<stop offset="1" stop-color="white"/>
</linearGradient>
<linearGradient id="paint27_linear" x1="2237.27" y1="98.7995" x2="-364.969" y2="820.526" gradientUnits="userSpaceOnUse">
<stop offset="0.0828132" stop-color="white" stop-opacity="0"/>
<stop offset="1" stop-color="white"/>
</linearGradient>
<linearGradient id="paint28_linear" x1="2237.27" y1="98.7995" x2="-364.969" y2="820.526" gradientUnits="userSpaceOnUse">
<stop offset="0.0828132" stop-color="white" stop-opacity="0"/>
<stop offset="1" stop-color="white"/>
</linearGradient>
<linearGradient id="paint29_linear" x1="2237.27" y1="98.7995" x2="-364.969" y2="820.526" gradientUnits="userSpaceOnUse">
<stop offset="0.0828132" stop-color="white" stop-opacity="0"/>
<stop offset="1" stop-color="white"/>
</linearGradient>
<linearGradient id="paint30_linear" x1="2237.27" y1="98.7995" x2="-364.969" y2="820.526" gradientUnits="userSpaceOnUse">
<stop offset="0.0828132" stop-color="white" stop-opacity="0"/>
<stop offset="1" stop-color="white"/>
</linearGradient>
<linearGradient id="paint31_linear" x1="2237.27" y1="98.7995" x2="-364.969" y2="820.526" gradientUnits="userSpaceOnUse">
<stop offset="0.0828132" stop-color="white" stop-opacity="0"/>
<stop offset="1" stop-color="white"/>
</linearGradient>
<linearGradient id="paint32_linear" x1="2237.27" y1="98.7995" x2="-364.969" y2="820.526" gradientUnits="userSpaceOnUse">
<stop offset="0.0828132" stop-color="white" stop-opacity="0"/>
<stop offset="1" stop-color="white"/>
</linearGradient>
<linearGradient id="paint33_linear" x1="2237.27" y1="98.7995" x2="-364.969" y2="820.526" gradientUnits="userSpaceOnUse">
<stop offset="0.0828132" stop-color="white" stop-opacity="0"/>
<stop offset="1" stop-color="white"/>
</linearGradient>
<linearGradient id="paint34_linear" x1="2237.27" y1="98.7995" x2="-364.969" y2="820.526" gradientUnits="userSpaceOnUse">
<stop offset="0.0828132" stop-color="white" stop-opacity="0"/>
<stop offset="1" stop-color="white"/>
</linearGradient>
<linearGradient id="paint35_linear" x1="2237.27" y1="98.7995" x2="-364.969" y2="820.526" gradientUnits="userSpaceOnUse">
<stop offset="0.0828132" stop-color="white" stop-opacity="0"/>
<stop offset="1" stop-color="white"/>
</linearGradient>
<linearGradient id="paint36_linear" x1="2237.27" y1="98.7995" x2="-364.969" y2="820.526" gradientUnits="userSpaceOnUse">
<stop offset="0.0828132" stop-color="white" stop-opacity="0"/>
<stop offset="1" stop-color="white"/>
</linearGradient>
<linearGradient id="paint37_linear" x1="2237.27" y1="98.7995" x2="-364.969" y2="820.526" gradientUnits="userSpaceOnUse">
<stop offset="0.0828132" stop-color="white" stop-opacity="0"/>
<stop offset="1" stop-color="white"/>
</linearGradient>
<linearGradient id="paint38_linear" x1="2237.27" y1="98.7995" x2="-364.969" y2="820.526" gradientUnits="userSpaceOnUse">
<stop offset="0.0828132" stop-color="white" stop-opacity="0"/>
<stop offset="1" stop-color="white"/>
</linearGradient>
<linearGradient id="paint39_linear" x1="2237.27" y1="98.7995" x2="-364.969" y2="820.526" gradientUnits="userSpaceOnUse">
<stop offset="0.0828132" stop-color="white" stop-opacity="0"/>
<stop offset="1" stop-color="white"/>
</linearGradient>
<linearGradient id="paint40_linear" x1="2237.27" y1="98.7995" x2="-364.969" y2="820.526" gradientUnits="userSpaceOnUse">
<stop offset="0.0828132" stop-color="white" stop-opacity="0"/>
<stop offset="1" stop-color="white"/>
</linearGradient>
</defs>
</svg>
