<svg width="149" height="149" viewBox="0 0 149 149" fill="none" xmlns="http://www.w3.org/2000/svg">
<path d="M74.5 9.3125C38.6469 9.3125 9.3125 38.6469 9.3125 74.5C9.3125 110.353 38.6469 139.688 74.5 139.688C110.353 139.688 139.688 110.353 139.688 74.5C139.688 38.6469 110.353 9.3125 74.5 9.3125ZM69.3781 37.25H79.6219V88.4688H69.3781V37.25V37.25ZM74.5 116.406C70.775 116.406 67.5156 113.147 67.5156 109.422C67.5156 105.697 70.775 102.438 74.5 102.438C78.225 102.438 81.4844 105.697 81.4844 109.422C81.4844 113.147 78.225 116.406 74.5 116.406Z" fill="#FF0000"/>
</svg>
